PathFileType	4	(X/Y/Z)	OpenSim_Sub01_CSStiffKnee_Accel.trc
DataRate	CameraRate	NumFrames	NumMarkers	Units	OrigDataRate	OrigDataStartFrame	OrigNumFrames
100	100	13	8	m	100	4036	5381
Frame#	Time	torso_imu_offset_imu	pelvis_imu_offset_imu	tibia_r_imu_offset_imu	femur_r_imu_offset_imu	tibia_l_imu_offset_imu	femur_l_imu_offset_imu	toes_r_imu_offset_imu	toes_l_imu_offset_imu
				X1	Y1	Z1	X2	Y2	Z2	X3	Y3	Z3	X4	Y4	Z4	X5	Y5	Z5	X6	Y6	Z6	X7	Y7	Z7	X8		Y8	Z8	

4036	40.35000000	12.18770256	-1.53461207	6.66195099	12.60180371	1.49606928	5.16818725	11.07273951	8.74809047	-0.17400304	11.27242154	-3.22972229	-2.42555937	12.70223268	-0.38048795	-0.10808663	12.16098022	0.57443443	-1.96157463	9.03290859	-2.12198542	10.19234250	5.50809284	1.22621636	12.32253934
4037	40.36000000	11.59089050	-1.83073922	6.53209441	11.60220391	0.85233522	5.00796985	10.85737704	7.75959562	-0.46802471	10.32019004	0.19830303	-2.30211000	12.05885868	-0.02949656	0.05118533	11.31979994	0.30445575	-1.67268410	6.41265344	-0.64180304	9.30395731	6.13808668	1.13496039	11.82590308
4038	40.37000000	10.76667123	-2.08974148	6.30458375	10.45150206	0.18830710	4.73390216	10.02018194	5.09881384	-1.22155677	8.97858757	4.12967986	-0.49857609	11.33681402	0.05526100	0.33004913	10.44033095	0.14578901	-1.50310347	5.51306520	-1.27353884	8.85126574	6.85679534	1.23619701	10.92176881
4039	40.38000000	9.85257645	-2.32311382	5.97383774	9.31562649	-0.37529771	4.43515039	9.10532009	2.27942198	-1.87553745	7.88627974	6.54786380	1.26248741	10.44788702	-0.34903793	0.69557196	9.60002021	-0.00324377	-1.47864825	5.55850951	-2.69167142	8.65825993	7.55108944	1.55695400	10.90477906
4040	40.39000000	8.99819287	-2.54270367	5.54355196	8.35259783	-0.72792926	4.20369102	8.73545452	0.82139200	-1.81234768	7.71247191	5.58614383	1.20071598	9.29822091	-1.43062631	1.09789380	8.87227667	-0.25114002	-1.59382876	5.57912042	-3.32690897	8.50934398	8.03970613	2.10839775	13.04555069
4041	40.40000000	8.32980156	-2.71864155	5.08181756	7.66112074	-0.81361751	4.08253729	8.96173043	0.68146297	-1.10222398	8.33604649	2.29715257	-0.19925835	7.94997182	-2.90668031	1.41121217	8.45090411	-0.57922295	-1.69388998	5.35628636	-2.99963863	8.39382819	7.45001378	2.84844964	16.74260708
4042	40.41000000	7.95965158	-2.79653425	4.69457731	7.30468901	-0.60883058	4.08569677	9.49819717	0.89598102	-0.22070691	9.17035503	-0.54950628	-1.12062997	6.55764272	-4.21686380	1.46557658	8.59990126	-0.89407548	-1.53702026	5.11421226	-2.34927298	8.42147654	4.50743107	3.70339020	20.29236502
4043	40.42000000	7.93982609	-2.74011477	4.45892944	7.30020158	-0.14109853	4.20136962	10.06917255	0.87746159	0.45612539	9.77477772	-1.28240095	-0.58852677	5.34213526	-4.87904728	1.22908952	9.40791294	-1.16187435	-1.09266941	5.00159270	-1.85398387	8.61246671	-0.81268460	4.55051678	22.47052465
4044	40.43000000	8.18856669	-2.55426778	4.38652075	7.56160728	0.44905123	4.36100922	10.43160757	0.90429778	0.78581059	10.04794915	-0.72993096	0.45492562	4.66984108	-4.59360440	0.97915984	10.57029802	-1.48392146	-0.80417884	4.98586803	-1.60855203	8.78361158	-5.73443569	5.15874452	23.15397926
4045	40.44000000	8.60193107	-2.25470825	4.47463093	7.98602360	1.01063402	4.49459814	10.37828141	1.31783500	0.67683439	9.94901250	0.00988286	0.90404453	4.88060913	-3.16038438	0.99359151	11.71624954	-1.94356914	-1.11164007	5.01459022	-1.64463261	8.74714226	-7.40699991	5.30493567	22.40226168
4046	40.45000000	9.03391511	-1.91147643	4.66364526	8.44061362	1.44254977	4.59620178	10.02626572	1.89981095	0.23732368	9.58788996	0.54744947	0.64241032	5.83704307	-1.15125347	1.12221191	12.34125221	-2.25011485	-1.75963745	5.08317638	-1.87773747	8.55206024	-6.11800272	4.99938893	20.62220074
4047	40.46000000	9.31406850	-1.62646742	4.86054191	8.77514633	1.67335532	4.69757475	9.68341179	2.10307529	-0.30705999	9.16321228	0.91101214	0.13655045	7.12051904	0.40864249	0.96364705	11.86433236	-1.89391558	-2.08388591	5.21513620	-2.15508974	8.38662052	-4.00303875	4.39013609	18.42499119
4048	40.47000000	9.34963105	-1.46083509	5.00526379	8.89797353	1.68026922	4.80633117	9.54649829	1.64133151	-0.78063149	8.82326247	1.11275039	-0.28045418	8.37694954	0.94812526	0.38502011	10.21703049	-0.72962726	-1.72060940	5.40354257	-2.37170199	8.35008397	-2.46975073	3.63083160	16.31422777
